<svg xmlns="http://www.w3.org/2000/svg" viewBox="0 0 34 34" role="img" aria-label="BoldSign">
  <circle cx="17.3" cy="16.6" r="16.6" fill="#FF4800" />
  <path
    d="M19.06 18.37 16.12 26.11c-.11.29-.38.43-.65.42a.74.74 0 0 1-.59-.42L8.57 9.68a.28.28 0 0 1 .11-.35.28.28 0 0 1 .37.04l5.69 5.76c-.32.92.1 2.05 1.29 2.42.26.08.55.09.82.01 1.53-.46 1.83-2.18.89-3.13-.51-.52-1.25-.65-1.88-.42l-5.71-5.77a.28.28 0 0 1-.03-.36.28.28 0 0 1 .32-.11l16.28 6.4c.28.11.42.36.42.61s-.14.5-.42.61l-7.69 2.99Z"
    fill="#fff"
  />
</svg>
